<svg xmlns="http://www.w3.org/2000/svg" width="40.868" height="40" viewBox="0 0 40.868 40">
  <path id="Path_379" data-name="Path 379" d="M42.088,26.649c-.817-.8-2.63-1.233-5.387-1.267a43.448,43.448,0,0,0-6.477.473,16.344,16.344,0,0,1-3-2.077A21.932,21.932,0,0,1,21.8,15.362c.08-.307.147-.573.207-.85,0,0,1.3-7.367.953-9.857a2.977,2.977,0,0,0-.167-.707l-.113-.287a2.339,2.339,0,0,0-2.13-1.63L19.909,2h-.017a2.4,2.4,0,0,0-2.454,1.543c-.79,2.9.023,7.237,1.493,12.854l-.373.913c-1.053,2.567-2.374,5.154-3.537,7.434l-.15.3c-1.227,2.4-2.337,4.434-3.347,6.157l-1.04.55c-.077.04-1.857.983-2.277,1.233-3.547,2.12-5.9,4.524-6.287,6.434a1.58,1.58,0,0,0,.6,1.75l1.007.5A3.017,3.017,0,0,0,4.9,42c2.527,0,5.46-3.147,9.5-10.2a94.774,94.774,0,0,1,14.635-3.48c3.547,2,7.911,3.387,10.654,3.387a5.006,5.006,0,0,0,1.25-.137,2.131,2.131,0,0,0,1.247-.85,4.5,4.5,0,0,0,.5-3.044,2.039,2.039,0,0,0-.6-1.037ZM4.348,40.094a17.6,17.6,0,0,1,4.98-5.96c.167-.137.587-.53.97-.893-2.82,4.5-4.71,6.291-5.95,6.851M20.313,3.311c.813,0,1.277,2.047,1.317,3.967a8.113,8.113,0,0,1-.97,4.264,20.842,20.842,0,0,1-.683-5.314s-.033-2.907.337-2.907M15.549,29.533c.567-1.013,1.157-2.08,1.757-3.214a61.289,61.289,0,0,0,3.084-6.727,22.161,22.161,0,0,0,5.087,6.321c.25.21.517.423.8.637a65.447,65.447,0,0,0-10.724,2.984M41.3,29.306a3.694,3.694,0,0,1-1.42.247c-1.48,0-3.307-.677-5.874-1.777.987-.073,1.89-.11,2.7-.11a10.587,10.587,0,0,1,3.374.363c1.45.37,1.47,1.12,1.22,1.277" transform="translate(-1.872 -2.004)" fill="#ed0000"/>
</svg>
