<svg xmlns="http://www.w3.org/2000/svg" width="271.114" height="271.115" viewBox="0 0 271.114 271.115">
  <path id="Path_2791" data-name="Path 2791" d="M137.557,2A135.557,135.557,0,1,0,273.115,137.557,135.607,135.607,0,0,0,137.557,2Zm0,40.667A40.667,40.667,0,1,1,96.89,83.334,40.613,40.613,0,0,1,137.557,42.667Zm0,192.491a97.609,97.609,0,0,1-81.334-43.649c.407-26.976,54.223-41.752,81.334-41.752,26.976,0,80.928,14.776,81.334,41.752A97.609,97.609,0,0,1,137.557,235.159Z" transform="translate(-2 -2)" fill="#a7aaf9"/>
</svg>
