<svg xmlns="http://www.w3.org/2000/svg" width="192.117" height="164.672" viewBox="0 0 192.117 164.672">
  <g id="Group_545" data-name="Group 545" transform="translate(-1404 -1989)">
    <path id="Path_1448" data-name="Path 1448" d="M75.342,21,53.934,42.407,32.527,21,21,32.527,42.407,53.934,21,75.342,32.527,86.869,53.934,65.461,75.342,86.869,86.869,75.342,65.461,53.934,86.869,32.527Z" transform="translate(1460.631 2017.402)" fill="#878ae0"/>
    <path id="Path_1450" data-name="Path 1450" d="M109.781,0A81.994,81.994,0,0,0,27.445,82.336H0l35.679,35.679.915.915L73.188,82.336H45.742a64.039,64.039,0,1,1,64.039,64.039v18.3A82.336,82.336,0,1,0,109.781,0Z" transform="translate(1404 1989)" fill="#878ae0"/>
    <circle id="Ellipse_326" data-name="Ellipse 326" cx="9.41" cy="9.41" r="9.41" transform="translate(1483.984 2134.853)" fill="#878ae0"/>
    <circle id="Ellipse_327" data-name="Ellipse 327" cx="9.41" cy="9.41" r="9.41" transform="translate(1460.459 2120.738)" fill="#878ae0"/>
  </g>
</svg>
