<svg xmlns="http://www.w3.org/2000/svg" width="103.637" height="167.956" viewBox="0 0 103.637 167.956">
  <g id="Group_8" data-name="Group 8" transform="translate(-0.737 0)">
    <path id="Path_18" data-name="Path 18" d="M65.85,17.442c-.531.016-1.723,1.855-2.15,2.17L19.216,42.752c-.352.261-3.517-2.766-3.7-2.368S10.9,63.516,10.937,63.952a2.6,2.6,0,0,0,1.377,2.1L36.3,78.772,4.359,108.712.132,130.459c-.644,3.307,1.142,5.041,3.78,3.518L74.328,77.729a2.632,2.632,0,0,0,.771-1.015c.167-.4,4.367-21.833,4.327-22.259s-3.453,2.838-3.692,2.48-3.985,2.778-4.364,2.576l-4.3,2.426-16.062-.7,20.64-37.584a2.6,2.6,0,0,0,.319-1.312C71.955,21.891,76.466.483,76.227.1s-.5.546-.906.328-.479.195-.936.208Z" transform="translate(0.737 35.893) rotate(-11)" fill="#fff" fill-rule="evenodd" opacity="0.204"/>
    <path id="Path_19" data-name="Path 19" d="M67.034,12c-.531.016,1.59-2.6,1.163-2.281L17.9,42.689c-.352.261-3.083-2.355-3.265-1.958s-3.728,18.567-3.694,19a2.6,2.6,0,0,0,1.377,2.1L36.305,74.554,3.272,109.034.135,126.241c-.653,3.41,1.142,5.041,3.78,3.518L74.331,73.511A2.632,2.632,0,0,0,75.1,72.5c.167-.4,3.789-18.856,3.748-19.283s-.562,1.525-.8,1.168S77,55.823,76.624,55.621l-25.614,1.4L71.65,19.441c.219-.4,3.777-18.917,3.765-19.372s-1.026,1.509-1.265,1.122-.464,1.6-.867,1.378S70.358,7.2,69.9,7.217Z" transform="translate(1.539 17.501) rotate(-11)" fill="#c5b4fd" fill-rule="evenodd"/>
    <path id="Path_16" data-name="Path 16" d="M69.685,0A2.643,2.643,0,0,0,68.2.514L12.391,41.86a2.6,2.6,0,0,0,.331,4.384L36.71,58.963.54,110.65c-1.766,3.058,1.142,5.041,3.78,3.518L74.736,57.92a2.6,2.6,0,0,0-.407-4.327L51.416,41.433,72.055,3.849a2.589,2.589,0,0,0-.065-2.607A2.616,2.616,0,0,0,69.685,0Z" transform="translate(4.116 14.447) rotate(-11)" fill="#fff" fill-rule="evenodd"/>
  </g>
</svg>
