<svg xmlns="http://www.w3.org/2000/svg" width="1072.312" height="309.009" viewBox="0 0 1072.312 309.009">
  <g id="Group_9" data-name="Group 9" transform="translate(-634.6 -408.618)">
    <g id="Group_8" data-name="Group 8" transform="translate(1103.126 408.618)">
      <path id="Path_18" data-name="Path 18" d="M121.9,32.09c-.976.029-3.17,3.412-3.955,3.993L36.1,78.656c-.648.48-6.47-5.089-6.8-4.357s-8.491,42.561-8.429,43.362a4.78,4.78,0,0,0,2.533,3.865l44.135,23.4L8.771,200.011.993,240.021c-1.184,6.084,2.1,9.275,6.955,6.473L137.5,143.007a4.843,4.843,0,0,0,1.418-1.867c.307-.727,8.035-40.168,7.96-40.953s-6.353,5.221-6.792,4.563-7.331,5.111-8.03,4.739l-7.911,4.464L94.6,112.675l37.974-69.148a4.789,4.789,0,0,0,.588-2.414C133.135,40.276,141.435.889,141,.176s-.926,1-1.667.6-.881.358-1.723.382Z" transform="translate(0 66.18) rotate(-11)" fill="#ccbeff" fill-rule="evenodd"/>
      <path id="Path_19" data-name="Path 19" d="M124.076,22.072c-.976.029,2.924-4.778,2.14-4.2L33.675,78.541c-.648.48-5.673-4.334-6.006-3.6S20.81,109.1,20.873,109.9a4.78,4.78,0,0,0,2.533,3.865l44.135,23.4L6.766,200.6.993,232.261c-1.2,6.274,2.1,9.275,6.955,6.473L137.5,135.247a4.843,4.843,0,0,0,1.418-1.867c.307-.727,6.97-34.692,6.9-35.477s-1.034,2.806-1.473,2.148-1.924,2.652-2.622,2.28L94.6,104.915l37.974-69.148c.4-.734,6.949-34.8,6.928-35.641S137.609,2.9,137.17,2.191s-.854,2.937-1.6,2.536-5.384,8.526-6.226,8.55Z" transform="translate(1.481 32.34) rotate(-11)" fill="#aa91fd" fill-rule="evenodd"/>
      <path id="Path_16" data-name="Path 16" d="M128.208,0a4.862,4.862,0,0,0-2.728.943L22.8,77.014a4.778,4.778,0,0,0,.609,8.066l44.135,23.4L.993,203.576c-3.248,5.626,2.1,9.275,6.955,6.473L137.5,106.562a4.781,4.781,0,0,0-.749-7.96L94.6,76.23,132.569,7.082a4.764,4.764,0,0,0-.12-4.8A4.812,4.812,0,0,0,128.208,0Z" transform="translate(6.954 26.58) rotate(-11)" fill="#7046fc" fill-rule="evenodd"/>
    </g>
    <path id="Path_32" data-name="Path 32" d="M-234.843,29.7a38.363,38.363,0,0,0,9.293-.938,17.132,17.132,0,0,0,5.882-2.558,8.56,8.56,0,0,0,3.069-3.836,13.678,13.678,0,0,0,.853-4.945q0-5.8-5.456-9.634t-18.756-8.27q-5.8-2.046-11.594-4.689a42.737,42.737,0,0,1-10.4-6.65,31.808,31.808,0,0,1-7.5-9.719,30.441,30.441,0,0,1-2.9-13.9,34.41,34.41,0,0,1,3.069-14.749,31.486,31.486,0,0,1,8.7-11.168,39.794,39.794,0,0,1,13.641-7.076A61.229,61.229,0,0,1-228.875-70.9a73.6,73.6,0,0,1,20.631,2.558,73.721,73.721,0,0,1,14.323,5.627l-7.673,20.972a72.672,72.672,0,0,0-11-4.518,47.622,47.622,0,0,0-14.578-1.961q-9.548,0-13.726,2.643a8.919,8.919,0,0,0-4.177,8.1,9.353,9.353,0,0,0,1.535,5.456,14.916,14.916,0,0,0,4.348,4.007,38.25,38.25,0,0,0,6.479,3.24q3.666,1.449,8.1,2.984,9.207,3.41,16.028,6.735A42.8,42.8,0,0,1-197.246-7.3a28.1,28.1,0,0,1,6.735,10.4,41.788,41.788,0,0,1,2.217,14.493q0,16.539-11.594,25.661t-34.954,9.122a96.843,96.843,0,0,1-14.152-.938,91.337,91.337,0,0,1-11.168-2.3,64.057,64.057,0,0,1-8.355-2.9,63.434,63.434,0,0,1-5.882-2.9l7.5-21.143a66.892,66.892,0,0,0,13.044,5.2A67.652,67.652,0,0,0-234.843,29.7ZM-92.982,46.92a141.6,141.6,0,0,1-16.71,3.5,137.308,137.308,0,0,1-21.484,1.62q-11.424,0-19.011-3.069a28.859,28.859,0,0,1-12.021-8.611,33.606,33.606,0,0,1-6.309-13.214,71.073,71.073,0,0,1-1.876-16.88V-39.7h25.405V7.192q0,12.276,3.24,17.733t12.106,5.456q2.728,0,5.8-.256t5.456-.6V-39.7h25.405ZM-11.65,5.828q0-11.765-5.286-18.841t-15.687-7.076q-3.41,0-6.309.256t-4.774.6V26.629a22.075,22.075,0,0,0,6.223,2.558,29.986,29.986,0,0,0,7.758,1.023Q-11.65,30.21-11.65,5.828Zm25.917-.682a65.713,65.713,0,0,1-2.558,18.926,42.589,42.589,0,0,1-7.5,14.664A33.87,33.87,0,0,1-8.07,48.284a39.613,39.613,0,0,1-16.88,3.41,45.533,45.533,0,0,1-9.889-1.023,47.6,47.6,0,0,1-8.866-2.9v33.76H-69.111V-36.628q3.41-1.023,7.843-1.961t9.293-1.62q4.859-.682,9.889-1.108t9.634-.426a55.085,55.085,0,0,1,19.779,3.325A40.649,40.649,0,0,1,1.99-29.041a40.2,40.2,0,0,1,9.122,14.749A56.688,56.688,0,0,1,14.267,5.146Zm15.346.682a54.848,54.848,0,0,1,3.666-20.887,44.781,44.781,0,0,1,9.634-14.919,40.076,40.076,0,0,1,13.726-9.037A42.976,42.976,0,0,1,72.58-42.084q19.1,0,30.18,11.68T113.842,3.952q0,2.217-.171,4.859t-.341,4.689H55.7a16.883,16.883,0,0,0,7.332,12.447q6.479,4.6,17.392,4.6a73.418,73.418,0,0,0,13.726-1.279,51.812,51.812,0,0,0,11-3.154l3.41,20.631A35.085,35.085,0,0,1,103.1,48.8a71.393,71.393,0,0,1-7.588,1.79q-4.177.767-8.952,1.279a89.564,89.564,0,0,1-9.548.512A56.521,56.521,0,0,1,55.955,48.8a41.014,41.014,0,0,1-14.834-9.8,38.912,38.912,0,0,1-8.7-14.749A58.424,58.424,0,0,1,29.612,5.828ZM89.289-3.891A26.224,26.224,0,0,0,88.181-10.2a15.752,15.752,0,0,0-2.9-5.456,15.432,15.432,0,0,0-4.945-3.922,16.109,16.109,0,0,0-7.417-1.535,17.041,17.041,0,0,0-7.332,1.449,15.151,15.151,0,0,0-5.115,3.836,17.163,17.163,0,0,0-3.154,5.541A36.363,36.363,0,0,0,55.7-3.891Zm98.211-13.3q-3.41-.853-8.014-1.79a49.521,49.521,0,0,0-9.889-.938,45.886,45.886,0,0,0-5.712.426,33.618,33.618,0,0,0-5.03.938V49.989H133.45V-34.923a152.61,152.61,0,0,1,16.113-4.518,92.843,92.843,0,0,1,20.716-2.131q2.046,0,4.945.256t5.8.682q2.9.426,5.8,1.023a27.277,27.277,0,0,1,4.945,1.449Z" transform="translate(909 570.708)" fill="#7046fc"/>
    <path id="Path_31" data-name="Path 31" d="M64.461,9.188q0-24.553-18.074-24.553a29.986,29.986,0,0,0-7.758,1.023,22.075,22.075,0,0,0-6.223,2.558V34.422q1.876.341,4.774.6t6.309.256q10.4,0,15.687-7.161T64.461,9.188Zm25.917.682a56.688,56.688,0,0,1-3.154,19.438A41.035,41.035,0,0,1,78.1,44.141,40.087,40.087,0,0,1,63.437,53.6a55.085,55.085,0,0,1-19.779,3.325q-4.6,0-9.634-.426t-9.889-1.108q-4.859-.682-9.293-1.62T7,51.814V-73.508L32.405-77.6v44.673a47.6,47.6,0,0,1,8.866-2.9,45.533,45.533,0,0,1,9.889-1.023,40.485,40.485,0,0,1,16.88,3.325,33.055,33.055,0,0,1,12.276,9.463,42.5,42.5,0,0,1,7.5,14.749A67.244,67.244,0,0,1,90.377,9.87Zm103.5-.171a58.32,58.32,0,0,1-3.069,19.352,42.046,42.046,0,0,1-8.866,15,39.9,39.9,0,0,1-13.9,9.634,46.373,46.373,0,0,1-18.159,3.41A45.915,45.915,0,0,1,131.9,53.69,39.9,39.9,0,0,1,118,44.056a44.11,44.11,0,0,1-9.037-15A55.53,55.53,0,0,1,105.723,9.7a53.555,53.555,0,0,1,3.325-19.267A43.693,43.693,0,0,1,118.255-24.4a41.351,41.351,0,0,1,13.981-9.548,45.015,45.015,0,0,1,17.647-3.41A45.462,45.462,0,0,1,167.7-33.95,40.456,40.456,0,0,1,181.6-24.4a43.334,43.334,0,0,1,9.037,14.834A54.819,54.819,0,0,1,193.875,9.7Zm-25.917,0q0-11.765-4.689-18.5t-13.385-6.735q-8.7,0-13.47,6.735T131.64,9.7q0,11.765,4.774,18.67a15.429,15.429,0,0,0,13.47,6.905,15.218,15.218,0,0,0,13.385-6.905Q167.958,21.464,167.958,9.7Zm81.331,46.719q-11.083-.171-17.988-2.387a26.646,26.646,0,0,1-10.912-6.223,20.647,20.647,0,0,1-5.456-9.719,52.442,52.442,0,0,1-1.449-12.873V-73.508L238.888-77.6V20.1a33.475,33.475,0,0,0,.512,6.138,10.592,10.592,0,0,0,1.961,4.6,10.408,10.408,0,0,0,4.177,3.069,22.894,22.894,0,0,0,7.332,1.535ZM266.51-57.31,291.916-61.4v26.428h30.521v21.143H291.916V17.713q0,8.014,2.813,12.788t11.339,4.774a48.541,48.541,0,0,0,8.44-.767,43.5,43.5,0,0,0,7.929-2.131l3.581,19.779a72.283,72.283,0,0,1-10.23,3.24,59.612,59.612,0,0,1-13.811,1.364q-10.4,0-17.221-2.813A27.014,27.014,0,0,1,273.842,46.1a29.2,29.2,0,0,1-5.712-12.191,71.969,71.969,0,0,1-1.62-15.857Zm102.3,93.778q6.991,0,9.889-1.364t2.9-5.286q0-3.069-3.751-5.371a71.286,71.286,0,0,0-11.424-5.2,117.076,117.076,0,0,1-10.827-4.6,31.825,31.825,0,0,1-8.27-5.712A23.1,23.1,0,0,1,342.044,1a29.354,29.354,0,0,1-1.876-11.083q0-12.617,9.378-19.949t25.746-7.332a82.562,82.562,0,0,1,15.687,1.449,72.989,72.989,0,0,1,11.935,3.154l-4.433,19.779a93.285,93.285,0,0,0-9.634-2.728,52.356,52.356,0,0,0-11.68-1.194q-11.935,0-11.935,6.65a6.869,6.869,0,0,0,.512,2.728,5.821,5.821,0,0,0,2.046,2.3,28.513,28.513,0,0,0,4.177,2.387Q374.611-1.554,378.7-.02a104.044,104.044,0,0,1,13.811,6.053,32.45,32.45,0,0,1,8.611,6.479,20.117,20.117,0,0,1,4.433,7.758,34.509,34.509,0,0,1,1.279,9.889q0,13.3-9.975,20.12T368.643,57.1a81.1,81.1,0,0,1-19.864-2.046,80.533,80.533,0,0,1-11-3.41l4.263-20.631a83.337,83.337,0,0,0,13.3,4.007A64.671,64.671,0,0,0,368.814,36.469Z" transform="translate(1300.076 565.984)" fill="#7046fc"/>
  </g>
</svg>
