<svg xmlns="http://www.w3.org/2000/svg" width="103.061" height="167.022" viewBox="0 0 103.061 167.022">
  <g id="Group_8" data-name="Group 8" transform="translate(-0.737 0)">
    <path id="Path_18" data-name="Path 18" d="M65.483,17.345c-.528.016-1.714,1.844-2.138,2.158L19.109,42.514c-.35.259-3.5-2.751-3.677-2.355s-4.59,23-4.556,23.438a2.584,2.584,0,0,0,1.369,2.089L36.1,78.334,4.335,108.107l-4.2,21.626c-.64,3.288,1.136,5.013,3.759,3.5L73.915,77.3a2.618,2.618,0,0,0,.766-1.009c.166-.393,4.343-21.711,4.3-22.135s-3.434,2.822-3.671,2.467-3.963,2.762-4.34,2.561L66.7,61.593,50.724,60.9,71.249,23.527a2.588,2.588,0,0,0,.318-1.3C71.555,21.77,76.041.48,75.8.1s-.5.543-.9.326-.476.193-.931.206Z" transform="translate(0.737 35.693) rotate(-11)" fill="#ccbeff" fill-rule="evenodd"/>
    <path id="Path_19" data-name="Path 19" d="M66.661,11.93c-.528.016,1.581-2.583,1.157-2.269L17.8,42.452c-.35.259-3.066-2.342-3.246-1.947s-3.707,18.464-3.673,18.9a2.584,2.584,0,0,0,1.369,2.089L36.1,74.14,3.254,108.427.134,125.539c-.65,3.391,1.136,5.013,3.759,3.5L73.918,73.1a2.618,2.618,0,0,0,.766-1.009c.166-.393,3.768-18.751,3.727-19.175s-.559,1.516-.8,1.161-1.04,1.433-1.417,1.232l-25.472,1.4L71.252,19.332C71.47,18.936,75.008.521,75,.068s-1.021,1.5-1.258,1.116-.461,1.587-.862,1.371-2.91,4.608-3.365,4.621Z" transform="translate(1.534 17.403) rotate(-11)" fill="#aa91fd" fill-rule="evenodd"/>
    <path id="Path_16" data-name="Path 16" d="M69.3,0a2.628,2.628,0,0,0-1.474.51l-55.5,41.116a2.582,2.582,0,0,0,.329,4.36L36.506,58.635.537,110.034c-1.756,3.041,1.136,5.013,3.759,3.5L74.321,57.6a2.584,2.584,0,0,0-.4-4.3L51.13,41.2,71.655,3.828a2.575,2.575,0,0,0-.065-2.592A2.6,2.6,0,0,0,69.3,0Z" transform="translate(4.097 14.367) rotate(-11)" fill="#7046fc" fill-rule="evenodd"/>
  </g>
</svg>
