<svg xmlns="http://www.w3.org/2000/svg" width="19.013" height="21.299" viewBox="0 0 19.013 21.299">
  <path id="Path_2838" data-name="Path 2838" d="M20.039,7.938a.23.23,0,0,1-.065.452H7.282l.508-2.047a1.871,1.871,0,0,1,2.266-1.365L10.139,5Zm3.683-.706L15.1,1.313a1.871,1.871,0,0,0-2.6.474c-.018.026-.036.053-.052.08l-1.115,1.79h.026L23.529,7.6a.217.217,0,0,0,.193-.365Zm-7.966,11.4a2.449,2.449,0,1,0-2.449-2.449,2.449,2.449,0,0,0,2.449,2.449Zm-9.5-6.695A1.851,1.851,0,0,1,8.1,10.087H23.411a1.851,1.851,0,0,1,1.851,1.851v8.489a1.851,1.851,0,0,1-1.851,1.851H8.1A1.851,1.851,0,0,1,6.25,20.427h0Zm2.116,5.319a.452.452,0,0,0,.313.435,3.4,3.4,0,0,1,2.249,2.464h9.652A3.4,3.4,0,0,1,23.144,17.6V14.776a3.4,3.4,0,0,1-2.562-2.566H10.93a3.4,3.4,0,0,1-2.245,2.464.452.452,0,0,0-.317.435Z" transform="translate(-6.25 -0.98)" fill="#254aa5"/>
</svg>
