<svg xmlns="http://www.w3.org/2000/svg" width="30" height="21.024" viewBox="0 0 30 21.024">
  <path id="transactions" d="M-969.948,720.511v-8.02l-2.155,2.155-2.155,2.155-.256-.246a19.306,19.306,0,0,1-1.551-1.58c0-.1,7.356-7.435,7.455-7.435.053,0,1.347,1.265,3.8,3.716l3.713,3.719-.45.453c-.25.25-.67.661-.936.91l-.486.457-2.175-2.175-2.175-2.175v16.079h-2.629l0-8.013Zm-17.466,4.291c-2.027-2.027-3.686-3.713-3.686-3.749a18.68,18.68,0,0,1,1.551-1.58l.256-.246,2.155,2.155,2.155,2.155V707.5h2.628v16.079l2.175-2.175,2.175-2.175.486.457c.266.25.69.66.936.91l.45.453-3.716,3.716c-2.454,2.454-3.745,3.716-3.8,3.716s-1.334-1.245-3.769-3.68Z" transform="translate(991.099 -707.5)" fill="#a7aaf9"/>
</svg>
